#!OML:ASF H:\Male1\Project 1\Capture day 1\Session 1\Male1.ASF
:FULLY-SPECIFIED
:DEGREES
199
root 16.6363 15.4207 -0.729008 185.278 -74.8812 -186.869
lowerback 10.8307 1.13077 -0.786165
upperback 2.90148 1.27468 -0.51608
thorax -3.05148 0.584858 -0.258793
lowerneck -8.97646 7.13603 9.01264
upperneck 5.71403 9.52522 -13.0907
head 4.25913 4.27921 -4.83728
rclavicle -6.47293e-015 9.93923e-015
rhumerus -40.9671 21.3985 -83.3347
rradius 45.9966
rwrist -23.4642
rhand -15.4479 1.9727
rfingers 7.12502
rthumb 10.7328 -27.7331
lclavicle -6.47293e-015 9.93923e-015
lhumerus 10.3032 19.0932 10.5486
lradius 50.9694
lwrist 3.9797
lhand -52.1111 20.5
lfingers 7.12502
lthumb -24.614 48.9374
rfemur -6.3398 13.0481 20.7914
rtibia 27.1253
rfoot -25.8096 -27.1416
rtoes -23.316
lfemur -1.64779 -9.10985 -21.5047
ltibia 23.5246
lfoot -24.2061 27.0664
ltoes -2.6942
200
root 16.6392 15.4221 -0.680004 185.412 -74.7316 -187.005
lowerback 10.9728 1.25732 -0.781825
upperback 2.82737 1.43349 -0.705598
thorax -3.20193 0.663844 -0.483007
lowerneck -9.02478 7.00664 8.97628
upperneck 5.69013 9.30341 -12.5284
head 4.20232 4.19951 -4.67417
rclavicle -1.36664e-014 -4.87022e-015
rhumerus -41.2612 21.1711 -83.4207
rradius 46.0735
rwrist -23.5441
rhand -15.6259 1.90504
rfingers 7.12502
rthumb 10.561 -27.8096
lclavicle -1.36664e-014 -4.87022e-015
lhumerus 8.20398 16.351 11.1449
lradius 53.5857
lwrist 4.25766
lhand -51.4722 17.9407
lfingers 7.12502
lthumb -24.0015 46.4601
rfemur -6.39755 13.1635 20.5131
rtibia 27.0524
rfoot -25.6133 -27.1448
rtoes -23.5779
lfemur -1.77598 -8.89653 -21.7298
ltibia 23.6629
lfoot -24.2521 27.0422
ltoes -2.72024
201
root 16.6443 15.4211 -0.632758 184.211 -74.6655 -185.815
lowerback 11.0282 1.40699 -0.498358
upperback 2.8624 1.65757 -0.782774
thorax -3.18496 0.772514 -0.753555
lowerneck -9.19141 6.81049 8.96835
upperneck 5.70185 8.99303 -12.0962
head 4.17629 4.06483 -4.56075
rclavicle -2.85877e-014 1.39149e-015
rhumerus -41.3137 20.8682 -83.3774
rradius 45.9003
rwrist -23.3846
rhand -15.5332 2.26581
rfingers 7.12502
rthumb 10.6504 -27.4443
lclavicle -2.85877e-014 1.39149e-015
lhumerus 6.84359 13.8292 12.0812
lradius 56.0507
lwrist 4.21239
lhand -51.4298 17.6829
lfingers 7.12502
lthumb -23.9609 46.2077
rfemur -6.40414 13.3493 20.6554
rtibia 27.0048
rfoot -25.4106 -27.2261
rtoes -23.6628
lfemur -1.85054 -8.61906 -21.552
ltibia 23.7937
lfoot -24.4162 26.8412
ltoes -2.19419
202
root 16.6505 15.4194 -0.589796 183.975 -74.8655 -185.616
lowerback 10.9597 1.46706 -0.581928
upperback 2.96411 1.72189 -0.867668
thorax -3.04085 0.80315 -0.799717
lowerneck -9.31179 6.69253 8.89998
upperneck 5.56474 8.78012 -11.5828
head 4.10263 3.98484 -4.40585
rclavicle -2.2003e-014 4.17448e-015
rhumerus -41.1253 20.9248 -83.3762
rradius 45.5702
rwrist -23.3107
rhand -15.5998 2.66682
rfingers 7.12502
rthumb 10.5862 -27.0466
lclavicle -2.2003e-014 4.17448e-015
lhumerus 5.77057 11.3785 13.0007
lradius 58.5549
lwrist 3.97661
lhand -52.9059 10.4043
lfingers 7.12502
lthumb -25.3756 38.7358
rfemur -6.35206 13.3441 20.549
rtibia 26.9081
rfoot -25.3187 -27.3525
rtoes -23.5498
lfemur -2.0052 -8.50202 -21.6227
ltibia 23.9885
lfoot -24.445 26.6279
ltoes -2.03934
203
root 16.657 15.4193 -0.552533 184.151 -75.3902 -185.875
lowerback 10.9478 1.43001 -0.847967
upperback 3.02077 1.63824 -0.948891
thorax -2.98136 0.761328 -0.721998
lowerneck -9.48421 6.60529 8.82937
upperneck 5.67677 8.62258 -11.025
head 4.11746 3.92855 -4.22894
rclavicle -2.23384e-014 9.14409e-015
rhumerus -40.983 21.1727 -83.4859
rradius 45.2503
rwrist -23.232
rhand -15.58 2.50331
rfingers 7.12502
rthumb 10.6053 -27.2091
lclavicle -2.23384e-014 9.14409e-015
lhumerus 5.06514 8.86023 13.8462
lradius 61.1153
lwrist 3.55667
lhand -53.0656 9.96673
lfingers 7.12502
lthumb -25.5286 38.2763
rfemur -6.17801 13.2093 20.3927
rtibia 26.772
rfoot -25.4069 -27.6004
rtoes -23.4355
lfemur -2.18073 -8.61933 -21.7787
ltibia 24.2167
lfoot -24.3401 26.3357
ltoes -2.06827
204
root 16.6629 15.4209 -0.518112 182.899 -76.0923 -184.712
lowerback 11.0171 1.36029 -0.809911
upperback 3.0308 1.55037 -0.915855
thorax -3.00934 0.717574 -0.698977
lowerneck -9.50148 6.43792 8.64815
upperneck 5.78107 8.37566 -10.4248
head 4.0903 3.83296 -4.03328
rclavicle -1.13556e-014 6.65929e-015
rhumerus -40.9443 21.3607 -83.5549
rradius 45.0105
rwrist -23.1254
rhand -15.0078 1.62224
rfingers 7.12502
rthumb 11.1573 -28.0611
lclavicle -1.13556e-014 6.65929e-015
lhumerus 4.98928 6.32002 14.7136
lradius 63.5907
lwrist 2.60643
lhand -53.0832 9.73999
lfingers 7.12502
lthumb -25.5454 38.0472
rfemur -5.92692 13.076 20.686
rtibia 26.67
rfoot -25.553 -28.0187
rtoes -23.4549
lfemur -2.27549 -8.80456 -21.5149
ltibia 24.3709
lfoot -24.2742 25.8625
ltoes -1.646
205
root 16.6665 15.4226 -0.482821 182.243 -76.9244 -184.123
lowerback 10.9997 1.2822 -0.919289
upperback 3.04417 1.43547 -0.922242
thorax -2.98907 0.66108 -0.628134
lowerneck -9.32009 6.17628 8.46929
upperneck 5.6634 8.00685 -9.92282
head 3.95891 3.68038 -3.88547
rclavicle 3.72721e-014 -6.95746e-015
rhumerus -40.7863 21.3458 -83.4739
rradius 44.7666
rwrist -22.7558
rhand -14.6473 1.05678
rfingers 7.12502
rthumb 11.5049 -28.6075
lclavicle 3.72721e-014 -6.95746e-015
lhumerus 5.4857 3.88411 15.5446
lradius 65.8628
lwrist 1.17913
lhand -52.9345 9.57269
lfingers 7.12502
lthumb -25.403 37.9002
rfemur -5.66706 12.6636 20.7737
rtibia 26.5052
rfoot -25.6771 -28.3399
rtoes -23.4819
lfemur -2.44265 -9.04411 -21.4133
ltibia 24.5374
lfoot -24.0607 25.4999
ltoes -2.00375
206
root 16.6685 15.4232 -0.445691 182.89 -77.8083 -184.818
lowerback 10.8803 1.23447 -1.23355
upperback 3.08065 1.33454 -1.05676
thorax -2.88995 0.611334 -0.574423
lowerneck -9.27436 5.97583 8.29441
upperneck 5.53861 7.70493 -9.33464
head 3.85296 3.56033 -3.70207
rclavicle 1.87355e-014 1.59028e-015
rhumerus -40.4154 20.9466 -83.3007
rradius 44.3522
rwrist -22.0418
rhand -14.6617 1.26118
rfingers 7.12502
rthumb 11.491 -28.4039
lclavicle 1.87355e-014 1.59028e-015
lhumerus 6.38835 1.41724 16.0614
lradius 68.015
lwrist -0.127555
lhand -52.8791 9.11601
lfingers 7.12502
lthumb -25.3499 37.4511
rfemur -5.4225 12.0384 20.4792
rtibia 26.2744
rfoot -25.8397 -28.4356
rtoes -23.2824
lfemur -2.71933 -9.41165 -21.6496
ltibia 24.7903
lfoot -23.8069 25.2777
ltoes -2.61615
207
root 16.6698 15.4268 -0.41696 181.795 -79.0533 -183.651
lowerback 10.5367 1.05921 -1.24704
upperback 3.20601 1.11039 -1.04461
thorax -2.57165 0.499149 -0.51704
lowerneck -9.59495 5.78731 7.87866
upperneck 5.68003 7.42598 -8.5591
head 3.8756 3.44276 -3.40935
rclavicle -1.15792e-014 3.57812e-015
rhumerus -39.8379 20.5476 -83.1194
rradius 43.8772
rwrist -21.6449
rhand -14.7243 1.54759
rfingers 7.12502
rthumb 11.4306 -28.1208
lclavicle -1.15792e-014 3.57812e-015
lhumerus 7.64208 -0.911139 16.1596
lradius 70.1443
lwrist -1.28591
lhand -52.8451 8.59641
lfingers 7.12502
lthumb -25.3174 36.9361
rfemur -5.17174 11.6475 20.7367
rtibia 26.0766
rfoot -26.4665 -28.8632
rtoes -22.3883
lfemur -3.10852 -9.99011 -21.3587
ltibia 25.0162
lfoot -23.4289 24.8566
ltoes -3.02916
208
root 16.6837 15.4258 -0.380524 179.365 -79.8088 -181.345
lowerback 10.6314 1.02124 -1.15111
upperback 3.32629 1.06792 -0.972474
thorax -2.4984 0.475631 -0.491214
lowerneck -9.86335 5.61631 7.4324
upperneck 5.79878 7.18634 -7.8912
head 3.89281 3.34075 -3.14383
rclavicle -4.27387e-015 -1.11319e-014
rhumerus -39.3247 20.3936 -83.0065
rradius 43.4865
rwrist -21.5445
rhand -14.8781 1.5558
rfingers 7.12502
rthumb 11.2823 -28.1208
lclavicle -4.27387e-015 -1.11319e-014
lhumerus 9.26347 -2.92171 16.0666
lradius 72.1129
lwrist -2.70414
lhand -52.6502 8.39403
lfingers 7.12502
lthumb -25.1306 36.76
rfemur -4.87147 11.3253 21.1141
rtibia 25.9109
rfoot -26.6382 -29.0966
rtoes -21.8819
lfemur -3.23358 -10.3462 -21.0071
ltibia 25.1803
lfoot -23.1157 24.6224
ltoes -3.52314
209
root 16.6959 15.4238 -0.343598 179.228 -80.4857 -181.436
lowerback 10.8779 1.04905 -1.47196
upperback 3.36177 1.05878 -1.05025
thorax -2.60109 0.469385 -0.394045
lowerneck -9.81768 5.44391 7.23736
upperneck 5.80693 6.94827 -7.47657
head 3.8466 3.24109 -3.00458
rclavicle -2.36554e-014 -1.98785e-015
rhumerus -39.0634 20.2327 -83.0048
rradius 43.1956
rwrist -21.507
rhand -15.0063 1.43621
rfingers 7.12502
rthumb 11.1587 -28.2471
lclavicle -2.36554e-014 -1.98785e-015
lhumerus 11.3048 -4.76902 15.8192
lradius 73.8523
lwrist -4.25653
lhand -52.5255 8.80118
lfingers 7.12502
lthumb -25.0111 37.1839
rfemur -4.49509 10.8833 20.9782
rtibia 25.7093
rfoot -26.7584 -29.195
rtoes -21.1166
lfemur -3.2367 -10.7317 -21.2068
ltibia 25.3398
lfoot -22.9045 24.4642
ltoes -4.05217
210
root 16.6965 15.4281 -0.307559 179.45 -81.0237 -181.658
lowerback 10.7261 1.11055 -1.825
upperback 3.36057 1.10527 -1.11724
thorax -2.52461 0.49263 -0.268397
lowerneck -9.74069 5.33509 6.93822
upperneck 5.76369 6.80451 -7.01129
head 3.78258 3.18855 -2.82712
rclavicle -1.01877e-014 -6.36111e-015
rhumerus -38.8109 20.1017 -83.0061
rradius 42.9057
rwrist -21.6001
rhand -15.1282 1.47808
rfingers 7.12502
rthumb 11.0411 -28.2115
lclavicle -1.01877e-014 -6.36111e-015
lhumerus 13.5872 -6.30301 15.4429
lradius 75.4803
lwrist -5.50204
lhand -51.2167 8.28486
lfingers 7.12502
lthumb -23.7564 36.8364
rfemur -4.36606 10.5607 20.7885
rtibia 25.5294
rfoot -26.752 -29.4165
rtoes -21.0152
lfemur -3.37941 -11.1093 -21.4038
ltibia 25.4506
lfoot -22.8875 24.3591
ltoes -3.99124
211
root 16.6995 15.4322 -0.272114 177.962 -81.4932 -180.139
lowerback 10.7289 1.16375 -1.9994
upperback 3.24166 1.16203 -1.0795
thorax -2.65433 0.524484 -0.140049
lowerneck -9.63602 5.19683 6.54538
upperneck 5.84562 6.63317 -6.45565
head 3.74515 3.12419 -2.60871
rclavicle -4.37326e-015 9.93923e-015
rhumerus -38.7609 20.1249 -83.1191
rradius 42.6866
rwrist -21.8202
rhand -15.1508 1.49763
rfingers 7.12502
rthumb 11.0193 -28.1931
lclavicle -4.37326e-015 9.93923e-015
lhumerus 15.9368 -7.58887 14.9299
lradius 77.0126
lwrist -6.32275
lhand -51.9456 8.43528
lfingers 7.12502
lthumb -24.4554 36.8942
rfemur -4.28122 10.4783 20.9162
rtibia 25.387
rfoot -26.7769 -29.8006
rtoes -21.4569
lfemur -3.50046 -11.5088 -21.3057
ltibia 25.4719
lfoot -22.8652 24.3242
ltoes -4.03004
212
root 16.7066 15.4373 -0.237891 176.423 -81.9772 -178.543
lowerback 10.9253 1.21838 -2.16557
upperback 2.96072 1.21346 -1.10731
thorax -3.05759 0.558389 -0.08955
lowerneck -9.44602 5.06576 6.54343
upperneck 6.09111 6.45514 -6.17266
head 3.76705 3.05314 -2.53662
rclavicle -1.41137e-014 0
rhumerus -39.0085 20.1564 -83.4783
rradius 42.5382
rwrist -22.1611
rhand -15.0959 1.22192
rfingers 7.12502
rthumb 11.0723 -28.466
lclavicle -1.41137e-014 0
lhumerus 18.5447 -8.72095 14.1509
lradius 78.2616
lwrist -6.91857
lhand -52.8255 8.86154
lfingers 7.12502
lthumb -25.2986 37.2039
rfemur -4.22078 10.3578 21.0241
rtibia 25.2244
rfoot -26.9432 -30.0669
rtoes -21.3535
lfemur -3.67916 -11.8927 -21.1985
ltibia 25.4846
lfoot -22.7377 24.1964
ltoes -4.46797
